<svg width="42" height="36" viewBox="0 0 42 36" fill="none" xmlns="http://www.w3.org/2000/svg">
<path d="M5.55232 21.1195L20.3316 34.3994C20.6495 34.685 20.8084 34.8278 21 34.8278C21.1916 34.8278 21.3505 34.685 21.6684 34.3994L36.4477 21.1195C37.5567 20.123 38.1111 19.6248 38.5216 19.1344C40.9815 16.1956 41.3105 12.0213 39.3413 8.73336C39.0127 8.18477 38.5431 7.60583 37.6039 6.44794L37.2093 5.9614C36.2699 4.8033 35.8002 4.22426 35.4028 3.85153C31.822 0.493593 26.0895 1.12286 23.3225 5.17761C23.0153 5.62769 22.6824 6.29483 22.0167 7.62913C21.9129 7.83705 21.861 7.94101 21.8175 8.00281C21.4192 8.56826 20.5808 8.56826 20.1825 8.00281C20.139 7.94101 20.0871 7.83705 19.9833 7.62912C19.3176 6.29483 18.9847 5.62769 18.6775 5.17761C15.9105 1.12286 10.178 0.493593 6.59723 3.85153C6.19976 4.22425 5.73009 4.80329 4.79074 5.96136L4.79072 5.96139L4.39607 6.44794L4.39605 6.44796C3.45687 7.60583 2.98728 8.18477 2.65871 8.73336C0.689519 12.0213 1.01849 16.1956 3.47841 19.1344C3.88885 19.6248 4.44334 20.123 5.55232 21.1195Z" stroke="white" stroke-width="1.4"/>
</svg>
