<svg width="79" height="31" viewBox="0 0 79 31" fill="none" xmlns="http://www.w3.org/2000/svg">
<path d="M11.2241 30.504C9.60008 30.504 7.92008 30.238 6.18408 29.706C4.72808 30.07 3.45408 30.252 2.36208 30.252C1.29808 30.252 0.570078 30.224 0.178078 30.168C0.374078 28.516 1.21408 24.33 2.69808 17.61C4.21008 10.862 4.96608 7.04 4.96608 6.144C4.96608 5.22 4.77008 4.422 4.37808 3.75C4.01408 3.078 3.65008 2.588 3.28608 2.28L2.69808 1.818L2.82408 1.188C3.55208 0.991999 5.03608 0.781999 7.27608 0.557999C9.54408 0.305998 11.5181 0.179998 13.1981 0.179998C17.0901 0.179998 20.0301 1.048 22.0181 2.784C24.0341 4.492 25.0421 7.278 25.0421 11.142C25.0421 14.306 24.5101 17.344 23.4461 20.256C22.4101 23.14 20.8141 25.576 18.6581 27.564C16.5021 29.524 14.0241 30.504 11.2241 30.504ZM14.2061 2.826C13.4781 2.826 12.6521 2.91 11.7281 3.078C11.4481 6.046 10.6501 10.386 9.33408 16.098C8.04608 21.782 7.29008 25.408 7.06608 26.976C7.73808 27.312 8.66208 27.48 9.83808 27.48C11.0141 27.48 12.1201 27.018 13.1561 26.094C14.2201 25.142 15.0741 23.966 15.7181 22.566C16.3621 21.166 16.9221 19.598 17.3981 17.862C18.2101 14.754 18.6161 11.926 18.6161 9.378C18.6161 6.83 18.2801 5.108 17.6081 4.212C16.9361 3.288 15.8021 2.826 14.2061 2.826ZM32.3763 30.504C30.4443 30.504 28.9323 29.832 27.8403 28.488C26.7483 27.116 26.2023 25.212 26.2023 22.776C26.2023 19.668 27.0283 16.994 28.6803 14.754C30.3603 12.514 32.6703 11.394 35.6103 11.394L37.1223 11.478C37.5983 11.226 38.1303 11.1 38.7183 11.1C40.9303 11.1 42.0363 13.186 42.0363 17.358C43.1843 17.302 44.3463 17.148 45.5223 16.896L46.1943 16.728L46.4463 18.366C45.5223 18.758 44.2763 19.108 42.7083 19.416L41.8683 19.584C41.3363 22.524 40.2583 25.086 38.6343 27.27C37.0103 29.426 34.9243 30.504 32.3763 30.504ZM34.6443 26.892C35.8203 26.892 36.8703 26.136 37.7943 24.624C38.7463 23.112 39.4043 21.516 39.7683 19.836C36.7723 19.836 35.2743 18.716 35.2743 16.476C35.2743 15.58 35.4563 14.74 35.8203 13.956L36.0303 13.536C35.9183 13.48 35.7783 13.452 35.6103 13.452C35.4423 13.452 35.3163 13.48 35.2323 13.536C34.5323 13.984 33.8743 15.034 33.2583 16.686C32.6423 18.338 32.3343 20.228 32.3343 22.356C32.3343 25.38 33.1043 26.892 34.6443 26.892ZM47.2939 30.504C46.3139 30.504 45.5579 30.21 45.0259 29.622C44.4939 29.034 44.2279 28.25 44.2279 27.27C44.2279 26.29 44.5919 25.45 45.3199 24.75C46.0479 24.022 46.9019 23.658 47.8819 23.658C48.8899 23.658 49.6599 23.952 50.1919 24.54C50.7239 25.1 50.9899 25.87 50.9899 26.85C50.9899 27.802 50.6119 28.656 49.8559 29.412C49.1279 30.14 48.2739 30.504 47.2939 30.504ZM62.7938 13.998C62.7938 15.174 62.4158 17.204 61.6598 20.088C60.9038 22.944 60.5258 24.82 60.5258 25.716C60.5258 26.584 60.6518 27.018 60.9038 27.018C61.0718 27.018 61.7158 26.752 62.8358 26.22L63.3398 25.968L64.0538 27.438C63.8018 27.662 63.4658 27.942 63.0458 28.278C62.6258 28.614 61.8418 29.076 60.6938 29.664C59.5458 30.224 58.4818 30.504 57.5018 30.504C56.5218 30.504 55.7518 30.21 55.1918 29.622C54.6318 29.006 54.3518 28.194 54.3518 27.186C54.3518 26.15 54.7018 24.33 55.4018 21.726C56.1018 19.094 56.4518 17.386 56.4518 16.602C56.4518 15.426 56.0878 14.32 55.3598 13.284L54.9818 12.78L55.0238 12.234C56.5078 11.814 58.9158 11.604 62.2478 11.604C62.6118 12.024 62.7938 12.822 62.7938 13.998ZM58.0058 7.026C57.4458 6.466 57.1658 5.724 57.1658 4.8C57.1658 3.876 57.5438 3.064 58.2998 2.364C59.0838 1.664 59.9798 1.314 60.9878 1.314C61.9958 1.314 62.7798 1.594 63.3398 2.154C63.8998 2.714 64.1798 3.456 64.1798 4.38C64.1798 5.276 63.7738 6.074 62.9618 6.774C62.1778 7.474 61.2958 7.824 60.3158 7.824C59.3358 7.824 58.5658 7.558 58.0058 7.026ZM78.6892 11.898C78.6332 12.598 78.3952 13.41 77.9752 14.334C76.9112 14.222 75.9032 14.166 74.9512 14.166H74.1952C72.9072 20.41 72.2632 24.302 72.2632 25.842C72.2632 26.654 72.4312 27.06 72.7672 27.06C73.1312 27.06 74.0692 26.71 75.5812 26.01L76.3372 27.396C73.8452 29.468 71.5352 30.504 69.4072 30.504C68.4272 30.504 67.6152 30.196 66.9712 29.58C66.3552 28.964 66.0472 28.152 66.0472 27.144C66.0472 26.108 66.1592 24.946 66.3832 23.658C66.6352 22.37 66.9712 20.802 67.3912 18.954C67.8112 17.078 68.1192 15.566 68.3152 14.418C67.2792 14.502 66.5092 14.586 66.0052 14.67C65.9492 14.334 65.9212 13.886 65.9212 13.326C65.9212 12.738 65.9632 12.262 66.0472 11.898H68.6932C68.9172 10.386 69.0292 8.958 69.0292 7.614L68.9872 6.312V6.186C71.1712 5.43 73.2292 5.052 75.1612 5.052C75.2732 5.612 75.3292 6.312 75.3292 7.152C75.3292 7.992 75.0912 9.574 74.6152 11.898H78.6892Z" fill="#dedede"/>
</svg>
